# xmcd
#
# Track frame offsets:
#	150
#	18832
#	35697
#	53711
#	70252
#	88437
#	113276
#	129750
#	146765
#	166643
#	183759
#	203192
#
# Disc length: 2965 seconds
#
# Revision: 1
# Processed by: cddbd v1.5.2PL0 Copyright (c) Steve Scherf et al.
# Submitted via: audiograbber 1.83.01
#
DISCID=970b930c
DTITLE=Various Artist - Love Songs CD 2
DYEAR=2007
DGENRE=Pop
TTITLE0=Gazebo - I like Chopin
TTITLE1=B3 - How deep is your love
TTITLE2=Milli Vanilli - I'm gonna miss you
TTITLE3=Beat Base - Say I'm your No. 1
TTITLE4=La Bouche - Be my lover
TTITLE5=Modern Talking - You're my heart, you're my soul
TTITLE6=Haddaway - I miss you
TTITLE7=Morris, Jill - Runaway love
TTITLE8=Gayle, Michelle - I'll find you
TTITLE9=Real McCoy - Automatic lover
TTITLE10=Cox, Deborah - Where do we go from here
TTITLE11=Wild Orchid - At night I pray
EXTD=
EXTT0=
EXTT1=
EXTT2=
EXTT3=
EXTT4=
EXTT5=
EXTT6=
EXTT7=
EXTT8=
EXTT9=
EXTT10=
EXTT11=
PLAYORDER=
